<?xml version="1.0" encoding="utf-8"?>
<!-- Generator: Adobe Illustrator 24.1.0, SVG Export Plug-In . SVG Version: 6.00 Build 0)  -->
<svg version="1.1" id="icon" xmlns="http://www.w3.org/2000/svg" xmlns:xlink="http://www.w3.org/1999/xlink" x="0px" y="0px"
	 width="24px" height="24px" viewBox="0 0 24 24" style="enable-background:new 0 0 24 24;" xml:space="preserve">
<style type="text/css">
	.st0{fill:none;}
	.st1{fill:#F1C21B;}
</style>
<rect id="_Transparent_Rectangle_" class="st0" width="24" height="24"/>
<path class="st1" d="M22.4,19.9L12.7,1.9c-0.2-0.4-0.7-0.5-1-0.3c-0.1,0.1-0.2,0.2-0.3,0.3L1.6,19.9c-0.1,0.2-0.1,0.5,0,0.7
	C1.7,20.9,2,21,2.3,21h19.5c0.3,0,0.5-0.1,0.6-0.4C22.5,20.4,22.5,20.2,22.4,19.9z M11.2,6h1.6v7.5h-1.6V6z M12,17.7
	c-0.7,0-1.2-0.5-1.2-1.2s0.5-1.2,1.2-1.2s1.2,0.5,1.2,1.2S12.7,17.7,12,17.7z"/>
<g>
	<g>
		<g>
			<rect x="11.2" y="6" width="1.6" height="7.5"/>
		</g>
	</g>
	<g>
		<g>
			<circle cx="12" cy="16.5" r="1.2"/>
		</g>
	</g>
</g>
</svg>
