<?xml version="1.0" encoding="utf-8"?>
<!-- Generator: Adobe Illustrator 23.0.4, SVG Export Plug-In . SVG Version: 6.00 Build 0)  -->
<svg version="1.1" id="Layer_1" xmlns="http://www.w3.org/2000/svg" xmlns:xlink="http://www.w3.org/1999/xlink" x="0px" y="0px"
	 viewBox="0 0 48 48" style="enable-background:new 0 0 48 48;" xml:space="preserve">
<style type="text/css">
	.st0{fill:#924CFC;}
</style>
<title>BE_for_Accessibility_update</title>
<path d="M92.5,109.7H46.7V122h45.7V109.7z M92.5,132.6H46.7v12.3h45.7V132.6z"/>
<path class="st0" d="M56.4,60.6c-5.8,0-10.5,4.7-10.5,10.5s4.7,10.5,10.5,10.5s10.5-4.7,10.5-10.5c0,0,0,0,0,0
	C66.9,65.3,62.2,60.6,56.4,60.6 M82.8,60.6c-5.8,0-10.5,4.7-10.5,10.5S77,81.6,82.8,81.6s10.5-4.7,10.5-10.5
	C93.3,65.3,88.6,60.6,82.8,60.6C82.8,60.6,82.8,60.6,82.8,60.6 M-1.5,129c0,10.2,8.3,18.4,18.4,18.4c9.7,0,15.5-6.7,17.8-13.5
	l12.1-38.3L11,111.5C3.7,114.7-1.5,120.5-1.5,129 M90.3,99.2c-5.3-11.4-18.9-16.4-30.3-11c-4.9,2.3-8.8,6.2-11,11H90.3z M48.9,155.4
	c5.3,11.4,18.9,16.4,30.3,11c4.9-2.3,8.8-6.2,11-11H48.9z M128.2,111.5L92.5,95.7l12,38.3c2.3,6.8,8.1,13.5,17.8,13.5
	c10.2,0,18.4-8.3,18.4-18.4C140.7,120.5,135.4,114.7,128.2,111.5"/>
<path d="M31.7,21.9H16.3v4.1h15.4V21.9z M31.7,29.6H16.3v4.1h15.4V29.6z"/>
<path class="st0" d="M19.6,5.4c-2,0-3.5,1.6-3.5,3.5c0,2,1.6,3.5,3.5,3.5c2,0,3.5-1.6,3.5-3.5c0,0,0,0,0,0C23.1,7,21.5,5.4,19.6,5.4
	 M28.5,5.4c-2,0-3.5,1.6-3.5,3.5s1.6,3.5,3.5,3.5c2,0,3.5-1.6,3.5-3.5S30.4,5.4,28.5,5.4C28.5,5.4,28.5,5.4,28.5,5.4 M0.1,28.4
	c0,3.4,2.8,6.2,6.2,6.2c3.3,0,5.2-2.3,6-4.6l4.1-12.9l-12,5.3C1.9,23.6,0.1,25.5,0.1,28.4 M31,18.4c-1.8-3.8-6.4-5.5-10.2-3.7
	c-1.6,0.8-3,2.1-3.7,3.7H31z M17.1,37.3c1.8,3.8,6.4,5.5,10.2,3.7c1.6-0.8,3-2.1,3.7-3.7H17.1z M43.8,22.5l-12-5.3l4,12.9
	c0.8,2.3,2.7,4.6,6,4.6c3.4,0,6.2-2.8,6.2-6.2C48,25.5,46.2,23.6,43.8,22.5"/>
</svg>
