<?xml version="1.0" encoding="utf-8"?>
<!-- Generator: Adobe Illustrator 24.1.2, SVG Export Plug-In . SVG Version: 6.00 Build 0)  -->
<svg version="1.1" id="Layer_2" xmlns="http://www.w3.org/2000/svg" xmlns:xlink="http://www.w3.org/1999/xlink" x="0px" y="0px"
	 width="32px" height="32px" viewBox="0 0 32 32" style="enable-background:new 0 0 32 32;" xml:space="preserve">
<style type="text/css">
	.st0{fill-rule:evenodd;clip-rule:evenodd;fill:none;}
	.st1{filter:url(#Adobe_OpacityMaskFilter);}
	.st2{fill-rule:evenodd;clip-rule:evenodd;fill:#FFFFFF;}
	.st3{mask:url(#mask-2_2_);fill-rule:evenodd;clip-rule:evenodd;fill:#924CFC;}
	.st4{fill-rule:evenodd;clip-rule:evenodd;}
</style>
<rect class="st0" width="32" height="32"/>
<g id="Group-4_1_" transform="translate(0.000000, 0.333400)">
	<g id="Clip-3_1_">
	</g>
	<defs>
		<filter id="Adobe_OpacityMaskFilter" filterUnits="userSpaceOnUse" x="2" y="5.7" width="28" height="20.5">
			<feColorMatrix  type="matrix" values="1 0 0 0 0  0 1 0 0 0  0 0 1 0 0  0 0 0 1 0"/>
		</filter>
	</defs>
	<mask maskUnits="userSpaceOnUse" x="2" y="5.7" width="28" height="20.5" id="mask-2_2_">
		<g class="st1">
			<polygon id="path-1_2_" class="st2" points="2,5.7 30,5.7 30,26.9 2,26.9 			"/>
		</g>
	</mask>
	<path id="Fill-2_1_" class="st3" d="M27.5,15.7l-7-3.1l2.4,7.5c0.5,1.3,1.6,2.7,3.5,2.7c2,0,3.6-1.6,3.6-3.6
		C30,17.5,29,16.3,27.5,15.7L27.5,15.7z M12,23.7c0.7,1.5,2.2,2.5,4,2.5c1.8,0,3.3-1,4-2.5H12z M20,13.7c-0.7-1.5-2.2-2.5-4-2.5
		c-1.8,0-3.3,1-4,2.5H20z M2,19.1c0,2,1.6,3.6,3.6,3.6c1.9,0,3.1-1.3,3.5-2.7l2.4-7.5l-7,3.1C3,16.3,2,17.5,2,19.1L2,19.1z
		 M18.6,5.7c-1.1,0-2,0.9-2,2c0,1.1,0.9,2,2,2c1.1,0,2-0.9,2-2C20.6,6.6,19.7,5.7,18.6,5.7L18.6,5.7z M13.4,5.7c-1.1,0-2,0.9-2,2
		c0,1.1,0.9,2,2,2c1.1,0,2-0.9,2-2C15.4,6.6,14.5,5.7,13.4,5.7L13.4,5.7z"/>
</g>
<path id="Fill-1_3_" class="st4" d="M20,16h-8v2h8V16z"/>
<path id="Fill-1_2_" class="st4" d="M20,20h-8v2h8V20z"/>
<rect class="st0" width="32" height="32"/>
</svg>
