<?xml version="1.0" encoding="utf-8"?>
<!-- Generator: Adobe Illustrator 24.1.2, SVG Export Plug-In . SVG Version: 6.00 Build 0)  -->
<svg version="1.1" id="Layer_2" xmlns="http://www.w3.org/2000/svg" xmlns:xlink="http://www.w3.org/1999/xlink" x="0px" y="0px"
	 width="64px" height="64px" viewBox="0 0 64 64" style="enable-background:new 0 0 64 64;" xml:space="preserve">
<style type="text/css">
	.st0{fill-rule:evenodd;clip-rule:evenodd;fill:none;}
	.st1{filter:url(#Adobe_OpacityMaskFilter);}
	.st2{fill-rule:evenodd;clip-rule:evenodd;fill:#FFFFFF;}
	.st3{mask:url(#mask-2_2_);fill-rule:evenodd;clip-rule:evenodd;fill:#924CFC;}
	.st4{fill-rule:evenodd;clip-rule:evenodd;}
</style>
<rect class="st0" width="64" height="64"/>
<g id="Group-4_1_" transform="translate(0.000000, 0.333400)">
	<g id="Clip-3_1_">
	</g>
	<defs>
		<filter id="Adobe_OpacityMaskFilter" filterUnits="userSpaceOnUse" x="4" y="11.7" width="56" height="41.1">
			<feColorMatrix  type="matrix" values="1 0 0 0 0  0 1 0 0 0  0 0 1 0 0  0 0 0 1 0"/>
		</filter>
	</defs>
	<mask maskUnits="userSpaceOnUse" x="4" y="11.7" width="56" height="41.1" id="mask-2_2_">
		<g class="st1">
			<polygon id="path-1_2_" class="st2" points="4,11.7 60,11.7 60,54.2 4,54.2 			"/>
		</g>
	</mask>
	<path id="Fill-2_1_" class="st3" d="M55.1,31.7L41,25.5l4.7,15.1c0.9,2.7,3.2,5.3,7,5.3c4,0,7.3-3.3,7.3-7.3
		C60,35.2,57.9,33,55.1,31.7L55.1,31.7z M24,47.7c1.4,3,4.5,5.1,8,5.1c3.5,0,6.6-2.1,8-5.1H24z M40,27.7c-1.4-3-4.5-5.1-8-5.1
		c-3.5,0-6.6,2.1-8,5.1H40z M4,38.6c0,4,3.3,7.3,7.3,7.3c3.8,0,6.1-2.6,7-5.3L23,25.5L8.9,31.7C6.1,33,4,35.2,4,38.6L4,38.6z
		 M37.2,11.7c-2.2,0-4,1.8-4,4c0,2.2,1.8,4,4,4c2.2,0,4-1.8,4-4C41.2,13.5,39.4,11.7,37.2,11.7L37.2,11.7z M26.8,11.7
		c-2.2,0-4,1.8-4,4c0,2.2,1.8,4,4,4c2.2,0,4-1.8,4-4C30.8,13.5,29,11.7,26.8,11.7L26.8,11.7z"/>
</g>
<path id="Fill-1_3_" class="st4" d="M40,32H24v4h16V32z"/>
<path id="Fill-1_2_" class="st4" d="M40,40H24v4h16V40z"/>
</svg>
