<?xml version="1.0" encoding="utf-8"?>
<!-- Generator: Adobe Illustrator 24.1.2, SVG Export Plug-In . SVG Version: 6.00 Build 0)  -->
<svg version="1.1" id="Layer_2" xmlns="http://www.w3.org/2000/svg" xmlns:xlink="http://www.w3.org/1999/xlink" x="0px" y="0px"
	 width="16px" height="16px" viewBox="0 0 16 16" style="enable-background:new 0 0 16 16;" xml:space="preserve">
<style type="text/css">
	.st0{filter:url(#Adobe_OpacityMaskFilter);}
	.st1{fill-rule:evenodd;clip-rule:evenodd;fill:#FFFFFF;}
	.st2{mask:url(#mask-2_2_);fill-rule:evenodd;clip-rule:evenodd;fill:#924CFC;}
	.st3{fill-rule:evenodd;clip-rule:evenodd;}
</style>
<g id="Group-4_1_" transform="translate(0.000000, 0.333400)">
	<g id="Clip-3_1_">
	</g>
	<defs>
		<filter id="Adobe_OpacityMaskFilter" filterUnits="userSpaceOnUse" x="1" y="2.7" width="14" height="10.3">
			<feColorMatrix  type="matrix" values="1 0 0 0 0  0 1 0 0 0  0 0 1 0 0  0 0 0 1 0"/>
		</filter>
	</defs>
	<mask maskUnits="userSpaceOnUse" x="1" y="2.7" width="14" height="10.3" id="mask-2_2_">
		<g class="st0">
			<polygon id="path-1_2_" class="st1" points="1,2.7 15,2.7 15,13.3 1,13.3 			"/>
		</g>
	</mask>
	<path id="Fill-2_1_" class="st2" d="M13.8,7.7l-3.5-1.6l1.2,3.8c0.2,0.7,0.8,1.3,1.8,1.3c1,0,1.8-0.8,1.8-1.8
		C15,8.6,14.5,8,13.8,7.7L13.8,7.7z M6,11.7c0.4,0.8,1.1,1.3,2,1.3c0.9,0,1.6-0.5,2-1.3H6z M10,6.7C9.6,5.9,8.9,5.4,8,5.4
		c-0.9,0-1.6,0.5-2,1.3H10z M1,9.4c0,1,0.8,1.8,1.8,1.8c1,0,1.5-0.7,1.8-1.3l1.2-3.8L2.2,7.7C1.5,8,1,8.6,1,9.4L1,9.4z M9.3,2.7
		c-0.6,0-1,0.4-1,1c0,0.6,0.4,1,1,1c0.6,0,1-0.4,1-1C10.3,3.1,9.9,2.7,9.3,2.7L9.3,2.7z M6.7,2.7c-0.6,0-1,0.4-1,1c0,0.6,0.4,1,1,1
		c0.6,0,1-0.4,1-1C7.7,3.1,7.3,2.7,6.7,2.7L6.7,2.7z"/>
</g>
<path id="Fill-1_3_" class="st3" d="M10,8H6v1h4V8z"/>
<path id="Fill-1_2_" class="st3" d="M10,10H6v1h4V10z"/>
</svg>
