<?xml version="1.0" encoding="UTF-8"?>
<svg width="32px" height="24px" viewBox="0 0 32 24" version="1.1" xmlns="http://www.w3.org/2000/svg" xmlns:xlink="http://www.w3.org/1999/xlink">
    <!-- Generator: sketchtool 63.1 (101010) - https://sketch.com -->
    <title>B089E708-0B4D-4DC4-A788-EFDA9EC2D83A</title>
    <desc>Created with sketchtool.</desc>
    <g id="Page-1" stroke="none" stroke-width="1" fill="none" fill-rule="evenodd">
        <g id="Summary-View" transform="translate(-1248.000000, -501.000000)">
            <g id="Bee_logo" transform="translate(1248.000000, 498.000000)">
                <rect id="Rectangle" x="0" y="0" width="32" height="32"></rect>
                <polygon id="Fill-2" fill="#000000" points="10.6666667 16 21.3333333 16 21.3333333 13.7142857 10.6666667 13.7142857"></polygon>
                <polygon id="Fill-3" fill="#000000" points="10.6666667 21.3333333 21.3333333 21.3333333 21.3333333 19.047619 10.6666667 19.047619"></polygon>
                <path d="M16.0003824,8.38095238 C17.9543765,8.38095238 19.6590548,9.30093417 20.5714286,10.6666667 L11.4285714,10.6666667 C12.34171,9.30093417 14.0463882,8.38095238 16.0003824,8.38095238" id="Fill-4" fill="#924CFC"></path>
                <path d="M16.0003824,26.6666667 C14.0463882,26.6666667 12.34171,25.7469514 11.4285714,24.3809524 L20.5714286,24.3809524 C19.6590548,25.7469514 17.9543765,26.6666667 16.0003824,26.6666667" id="Fill-6" fill="#924CFC"></path>
                <path d="M24.1425467,19.9991833 C24.6068859,21.6458123 26.1575161,22.8571429 28.0001932,22.8571429 C30.2098604,22.8571429 32,21.11745 32,18.9717288 C32,17.6335612 31.3046502,16.4537523 30.2446279,15.7550232 L21.3333333,9.9047619 L24.1425467,19.9991833 Z" id="Fill-8" fill="#924CFC"></path>
                <path d="M7.85745328,19.9991833 C7.3931141,21.6458123 5.84325656,22.8571429 3.99980685,22.8571429 C1.79091216,22.8571429 0,21.11745 0,18.9717288 C0,17.6335612 0.696122459,16.4537523 1.75537206,15.7550232 L10.6666667,9.9047619 L7.85745328,19.9991833 Z" id="Fill-10" fill="#924CFC"></path>
                <path d="M16.7619048,5.3337117 C16.7619048,6.59594359 17.7850088,7.61904762 19.0472407,7.61904762 C20.3094726,7.61904762 21.3333333,6.59594359 21.3333333,5.3337117 C21.3333333,4.07147981 20.3094726,3.04761905 19.0472407,3.04761905 C17.7850088,3.04761905 16.7619048,4.07147981 16.7619048,5.3337117" id="Fill-12" fill="#924CFC"></path>
                <path d="M15.2380952,5.3337117 C15.2380952,6.59594359 14.2142345,7.61904762 12.9520026,7.61904762 C11.6905274,7.61904762 10.6666667,6.59594359 10.6666667,5.3337117 C10.6666667,4.07147981 11.6905274,3.04761905 12.9520026,3.04761905 C14.2142345,3.04761905 15.2380952,4.07147981 15.2380952,5.3337117" id="Fill-14" fill="#924CFC"></path>
            </g>
        </g>
    </g>
</svg>