<?xml version="1.0" encoding="UTF-8"?>
<svg width="28px" height="20px" viewBox="0 0 28 20" version="1.1" xmlns="http://www.w3.org/2000/svg" xmlns:xlink="http://www.w3.org/1999/xlink">
    <title>3B693861-91AA-4E58-A377-95857D083C97</title>
    <g id="Latest-workflows" stroke="none" stroke-width="1" fill="none" fill-rule="evenodd">
        <g id="user-guide" transform="translate(-445.000000, -8139.000000)">
            <g id="Group-Copy-5" transform="translate(446.000000, 8139.000000)">
                <path d="M11.168399,2.06643243 C11.6566419,1.97221011 12.1847931,2.08478547 12.6101963,2.43168867 L12.6101963,2.43168867 L22.5657092,17.0194586 C22.8364782,17.4197259 22.9193732,17.8918507 22.8345091,18.331601 C22.749645,18.7713512 22.4970218,19.1787269 22.0967546,19.449496 C21.8072509,19.6453367 21.4657357,19.75 21.1162132,19.75 L21.1162132,19.75 L1.88378681,19.75 C1.40053765,19.75 0.963037653,19.5541246 0.646349942,19.2374369 C0.329662231,18.9207492 0.133786809,18.4832492 0.133786809,18 C0.133786809,17.6504775 0.238450088,17.3089623 0.434290836,17.0194586 L0.434290836,17.0194586 L10.050504,2.80418693 C10.3212731,2.40391967 10.7286488,2.15129651 11.168399,2.06643243 Z" id="Triangle" stroke="#000000" stroke-width="1.5" fill="#FF832B" transform="translate(11.500000, 10.500000) scale(1, -1) translate(-11.500000, -10.500000) "></path>
                <text id="?" font-family="IBMPlexSans-Medium, IBM Plex Sans" font-size="14" font-weight="400" line-spacing="16" letter-spacing="0.373333325" fill="#000000">
                    <tspan x="8" y="14">?</tspan>
                </text>
            </g>
        </g>
    </g>
</svg>