<?xml version="1.0" encoding="UTF-8"?>
<svg width="26px" height="20px" viewBox="0 0 26 20" version="1.1" xmlns="http://www.w3.org/2000/svg" xmlns:xlink="http://www.w3.org/1999/xlink">
    <title>DABF6102-76FE-422A-884C-E437E09FD2C1</title>
    <g id="Latest-workflows" stroke="none" stroke-width="1" fill="none" fill-rule="evenodd">
        <g id="user-guide" transform="translate(-445.000000, -8025.000000)">
            <g id="Group-9-Copy-2" transform="translate(446.000000, 8025.000000)">
                <path d="M11.5097097,1.15409959 C12.1370909,1.02862335 12.8123396,1.14248497 13.3867505,1.52542554 C13.6613812,1.70851269 13.8970386,1.94417007 14.0801257,2.21880078 L14.0801257,2.21880078 L23.3795583,16.1679497 C23.6093227,16.5125962 23.6776397,16.9177455 23.6023539,17.2941742 C23.5270682,17.6706029 23.3081797,18.0183111 22.9635332,18.2480754 C22.7171319,18.412343 22.4276204,18.5 22.1314829,18.5 L22.1314829,18.5 L1.86851709,18.5 C1.45430353,18.5 1.07930353,18.3321068 0.80785692,18.0606602 C0.536410311,17.7892136 0.368517092,17.4142136 0.368517092,17 C0.368517092,16.7038625 0.456174133,16.414351 0.62044165,16.1679497 L0.62044165,16.1679497 L9.91987426,2.21880078 C10.3028148,1.64438992 10.8823285,1.27957583 11.5097097,1.15409959 Z" id="Triangle-Copy-6" stroke="#474747" fill="#FFB077"></path>
                <text id="2" font-family="IBMPlexSans-SemiBold, IBM Plex Sans" font-size="12" font-weight="500" line-spacing="16" letter-spacing="0.319999993" fill="#000000">
                    <tspan x="8" y="15">2</tspan>
                </text>
            </g>
        </g>
    </g>
</svg>