<?xml version="1.0" encoding="utf-8"?>
<!-- Generator: Adobe Illustrator 26.0.2, SVG Export Plug-In . SVG Version: 6.00 Build 0)  -->
<svg version="1.1" id="icon" xmlns="http://www.w3.org/2000/svg" xmlns:xlink="http://www.w3.org/1999/xlink" x="0px" y="0px"
	 viewBox="0 0 32 32" style="enable-background:new 0 0 32 32;" xml:space="preserve">
<style type="text/css">
	.st0{fill:#FFFFFF;}
	.st1{fill:none;}
</style>
<path class="st0" d="M28,26H4c-1.1,0-2-0.9-2-2V10c0-1.1,0.9-2,2-2h24c1.1,0,2,0.9,2,2v14C30,25.1,29.1,26,28,26z M4,10v14h24V10H4z
	"/>
<rect x="10" y="20" class="st0" width="11" height="2"/>
<rect x="6" y="12" class="st0" width="2" height="2"/>
<rect x="10" y="12" class="st0" width="2" height="2"/>
<rect x="14" y="12" class="st0" width="2" height="2"/>
<rect x="18" y="12" class="st0" width="2" height="2"/>
<rect x="6" y="20" class="st0" width="2" height="2"/>
<rect x="6" y="16" class="st0" width="2" height="2"/>
<rect x="10" y="16" class="st0" width="2" height="2"/>
<rect x="14" y="16" class="st0" width="2" height="2"/>
<rect x="22" y="12" class="st0" width="4" height="2"/>
<rect x="22" y="16" class="st0" width="4" height="2"/>
<rect x="18" y="16" class="st0" width="2" height="2"/>
<rect x="23" y="20" class="st0" width="3" height="2"/>
<rect id="_Transparent_Rectangle_" x="0" y="0" class="st1" width="32" height="32"/>
</svg>
