<svg width="40" height="31" viewBox="0 0 40 31" fill="none" xmlns="http://www.w3.org/2000/svg">
<path fill-rule="evenodd" clip-rule="evenodd" d="M26.4199 20.2471H13.5806V23.7038H26.4192L26.4199 20.2471ZM26.4199 13.8271H13.5806V17.2838H26.4192L26.4199 13.8271Z" fill="#F4F4F4"/>
<mask id="mask0_216_6406" style="mask-type:luminance" maskUnits="userSpaceOnUse" x="0" y="0" width="40" height="31">
<path d="M0 0H39.9997V30.3706H0V0Z" fill="white"/>
</mask>
<g mask="url(#mask0_216_6406)">
<path fill-rule="evenodd" clip-rule="evenodd" d="M36.4767 14.3113L26.4193 9.866L29.8107 20.6333C30.454 22.552 32.0753 24.434 34.8147 24.434C37.666 24.434 40 22.1067 40 19.2553C40 16.84 38.5147 15.226 36.4767 14.3113ZM14.1973 26.6667C15.222 28.85 17.442 30.3707 20.0133 30.3707C22.5867 30.3707 24.792 28.8527 25.816 26.6667H14.1973ZM25.816 10.8647C24.7907 8.68133 22.5713 7.16067 20 7.16067C17.4267 7.16067 15.2213 8.67867 14.1973 10.8647H25.816ZM0 19.2553C0 22.1067 2.334 24.434 5.18467 24.434C7.92333 24.434 9.54533 22.552 10.1887 20.6333L13.58 9.866L3.52267 14.3113C1.48467 15.226 0 16.84 0 19.2553ZM23.7087 0C22.0753 0 20.7513 1.32467 20.7513 2.95733C20.7513 4.59067 22.0753 5.91533 23.7087 5.91533C25.342 5.91533 26.6667 4.59067 26.6667 2.95733C26.6667 1.32467 25.342 0 23.7087 0ZM16.2907 0C14.6573 0 13.3333 1.32467 13.3333 2.95733C13.3333 4.59067 14.6573 5.91533 16.2907 5.91533C17.924 5.91533 19.248 4.59067 19.248 2.95733C19.248 1.32467 17.924 0 16.2907 0Z" fill="#A56EFF"/>
</g>
</svg>
