<?xml version="1.0" encoding="utf-8"?>
<!-- Generator: Adobe Illustrator 24.1.0, SVG Export Plug-In . SVG Version: 6.00 Build 0)  -->
<svg version="1.1" id="icon" xmlns="http://www.w3.org/2000/svg" xmlns:xlink="http://www.w3.org/1999/xlink" x="0px" y="0px"
	 width="32px" height="32px" viewBox="0 0 32 32" style="enable-background:new 0 0 32 32;" xml:space="preserve">
<style type="text/css">
	.st0{fill:none;}
	.st1{fill:#F1C21B;}
</style>
<rect id="_Transparent_Rectangle_" class="st0" width="32" height="32"/>
<path class="st1" d="M29.9,26.6l-13-24.1C16.6,2,16,1.9,15.5,2.1c-0.2,0.1-0.3,0.2-0.4,0.4l-13,24.1c-0.2,0.3-0.2,0.7,0,1
	C2.3,27.8,2.7,28,3,28h26c0.4,0,0.7-0.2,0.9-0.5C30,27.2,30,26.9,29.9,26.6z M14.9,8h2.2v10h-2.2V8z M16,23.6
	c-0.9,0-1.6-0.7-1.6-1.6s0.7-1.6,1.6-1.6c0.9,0,1.6,0.7,1.6,1.6S16.9,23.6,16,23.6z"/>
<g>
	<g>
		<g>
			<rect x="14.9" y="8" width="2.2" height="10"/>
		</g>
	</g>
	<g>
		<g>
			<circle cx="16" cy="22" r="1.6"/>
		</g>
	</g>
</g>
</svg>
