<?xml version="1.0" encoding="utf-8"?>
<!-- Generator: Adobe Illustrator 24.1.0, SVG Export Plug-In . SVG Version: 6.00 Build 0)  -->
<svg version="1.1" id="icon" xmlns="http://www.w3.org/2000/svg" xmlns:xlink="http://www.w3.org/1999/xlink" x="0px" y="0px"
	 width="20px" height="20px" viewBox="0 0 20 20" style="enable-background:new 0 0 20 20;" xml:space="preserve">
<style type="text/css">
	.st0{fill:none;}
	.st1{fill:#F1C21B;}
</style>
<rect id="_Transparent_Rectangle_" class="st0" width="20" height="20"/>
<path class="st1" d="M18.7,16.6l-8.1-15C10.4,1.3,10,1.2,9.7,1.3C9.6,1.4,9.5,1.5,9.5,1.6l-8.1,15c-0.1,0.2-0.1,0.4,0,0.6
	s0.3,0.3,0.5,0.3h16.2c0.2,0,0.4-0.1,0.5-0.3C18.8,17,18.8,16.8,18.7,16.6z M9.3,5h1.4v6.2H9.3V5z M10,14.8c-0.6,0-1-0.4-1-1
	s0.4-1,1-1s1,0.4,1,1S10.6,14.8,10,14.8z"/>
<g>
	<g>
		<g>
			<rect x="9.3" y="5" width="1.4" height="6.2"/>
		</g>
	</g>
	<g>
		<g>
			<circle cx="10" cy="13.8" r="1"/>
		</g>
	</g>
</g>
</svg>
