<?xml version="1.0" encoding="UTF-8"?>
<!DOCTYPE svg PUBLIC "-//W3C//DTD SVG 1.1//EN" "http://www.w3.org/Graphics/SVG/1.1/DTD/svg11.dtd">
<svg xmlns="http://www.w3.org/2000/svg" version="1.1" width="20px" height="20px" style="shape-rendering:geometricPrecision; text-rendering:geometricPrecision; image-rendering:optimizeQuality; fill-rule:evenodd; clip-rule:evenodd" xmlns:xlink="http://www.w3.org/1999/xlink">
<g><path style="opacity:1" fill="#fbfbfb" d="M -0.5,-0.5 C 1.5,-0.5 3.5,-0.5 5.5,-0.5C 2.79973,1.23438 0.799728,3.56772 -0.5,6.5C -0.5,4.16667 -0.5,1.83333 -0.5,-0.5 Z"/></g>
<g><path style="opacity:1" fill="#fafafa" d="M 13.5,-0.5 C 15.5,-0.5 17.5,-0.5 19.5,-0.5C 19.5,1.83333 19.5,4.16667 19.5,6.5C 17.5293,4.1918 15.5293,1.85847 13.5,-0.5 Z"/></g>
<g><path style="opacity:1" fill="#f9f9f9" d="M -0.5,11.5 C 1.09021,14.7608 3.42355,17.4274 6.5,19.5C 4.16667,19.5 1.83333,19.5 -0.5,19.5C -0.5,16.8333 -0.5,14.1667 -0.5,11.5 Z"/></g>
<g><path style="opacity:1" fill="#fbfbfb" d="M 19.5,12.5 C 19.5,14.8333 19.5,17.1667 19.5,19.5C 17.1667,19.5 14.8333,19.5 12.5,19.5C 15.1667,17.5 17.5,15.1667 19.5,12.5 Z"/></g>
<g><path style="opacity:1" fill="#c4c4c4" d="M 5.5,-0.5 C 8.16667,-0.5 10.8333,-0.5 13.5,-0.5C 15.5293,1.85847 17.5293,4.1918 19.5,6.5C 19.5,8.5 19.5,10.5 19.5,12.5C 17.5,15.1667 15.1667,17.5 12.5,19.5C 10.5,19.5 8.5,19.5 6.5,19.5C 3.42355,17.4274 1.09021,14.7608 -0.5,11.5C -0.5,9.83333 -0.5,8.16667 -0.5,6.5C 0.799728,3.56772 2.79973,1.23438 5.5,-0.5 Z"/></g>
<g><path style="opacity:1" fill="#575858" d="M 6.5,1.5 C 15.213,1.36184 18.3797,5.36184 16,13.5C 10.2643,19.2824 5.59766,18.6157 2,11.5C 1.07692,7.01653 2.57692,3.6832 6.5,1.5 Z"/></g>
<g><path style="opacity:1" fill="#d2d3d3" d="M 7.5,4.5 C 8.5,4.5 9.5,4.5 10.5,4.5C 10.073,7.78773 10.7397,10.7877 12.5,13.5C 10.5,14.8333 8.5,14.8333 6.5,13.5C 7.32496,12.6143 8.32496,12.281 9.5,12.5C 9.66331,10.1432 9.49665,7.80982 9,5.5C 6.64533,8.13038 6.14533,7.79705 7.5,4.5 Z"/></g>
</svg>