<svg xmlns="http://www.w3.org/2000/svg" viewBox="0 0 142.24 108"><defs><style>.cls-1{fill:#fff;}</style></defs><g id="Layer_2" data-name="Layer 2"><g id="Layer_1-2" data-name="Layer 1"><g id="Equal_Bee" data-name="Equal Bee"><path id="Equal" class="cls-1" d="M94,49.17H48.29V61.46H94ZM94,72H48.29V84.29H94Z"/><path id="IBM_Rebus_Bee" d="M57.93,0A10.52,10.52,0,1,0,68.45,10.52,10.52,10.52,0,0,0,57.93,0ZM84.31,0A10.52,10.52,0,1,0,94.83,10.52,10.52,10.52,0,0,0,84.31,0ZM0,68.47A18.48,18.48,0,0,0,18.44,86.89c9.74,0,15.51-6.69,17.79-13.52L48.29,35.08,12.53,50.89C5.28,54.14,0,59.88,0,68.47ZM91.8,38.63a22.78,22.78,0,0,0-41.31,0ZM50.49,94.83a22.78,22.78,0,0,0,41.31,0Zm79.23-43.94L94,35.08,106,73.37c2.29,6.83,8.06,13.52,17.79,13.52a18.48,18.48,0,0,0,18.44-18.42C142.24,59.88,137,54.14,129.72,50.89Z"/></g></g></g></svg>