<svg id="Layer_1" data-name="Layer 1" xmlns="http://www.w3.org/2000/svg" xmlns:xlink="http://www.w3.org/1999/xlink" viewBox="0 0 142.24 108"><defs><style>.cls-1{fill:none;}.cls-2{clip-path:url(#clip-path);}.cls-3{fill:#924cfc;}</style><clipPath id="clip-path"><rect class="cls-1" x="-704.54" y="-740.78" width="1152" height="648"/></clipPath></defs><title>BE_for_Accessibility_update</title><g class="cls-2"><path class="cls-3" d="M85.91,44.72A10.52,10.52,0,1,0,96.42,55.24,10.52,10.52,0,0,0,85.91,44.72m26.38,0A10.52,10.52,0,1,0,122.8,55.24a10.52,10.52,0,0,0-10.51-10.52M28,113.2a18.47,18.47,0,0,0,18.43,18.41c9.74,0,15.51-6.69,17.8-13.51L76.27,79.81,40.5,95.62C33.26,98.87,28,104.61,28,113.2m91.8-29.84a22.79,22.79,0,0,0-41.32,0ZM78.46,139.55a22.79,22.79,0,0,0,41.32,0Zm79.23-43.93L121.93,79.81,134,118.1c2.28,6.82,8,13.51,17.79,13.51a18.47,18.47,0,0,0,18.44-18.41c0-8.59-5.28-14.33-12.53-17.58"/></g><path d="M94,49.17H48.29V61.46H94ZM94,72H48.29V84.29H94Z"/><path class="cls-3" d="M57.93,0A10.52,10.52,0,1,0,68.45,10.52,10.52,10.52,0,0,0,57.93,0M84.31,0A10.52,10.52,0,1,0,94.83,10.52,10.52,10.52,0,0,0,84.31,0M0,68.47A18.48,18.48,0,0,0,18.44,86.89c9.74,0,15.51-6.69,17.79-13.52L48.29,35.08,12.53,50.89C5.28,54.14,0,59.88,0,68.47M91.8,38.63a22.78,22.78,0,0,0-41.31,0ZM50.49,94.83a22.78,22.78,0,0,0,41.31,0Zm79.23-43.94L94,35.08,106,73.37c2.29,6.83,8.06,13.52,17.79,13.52a18.48,18.48,0,0,0,18.44-18.42c0-8.59-5.28-14.33-12.52-17.58"/></svg>