<svg width="16" height="17" viewBox="0 0 16 17" fill="none" xmlns="http://www.w3.org/2000/svg">
<rect width="16" height="16" transform="translate(0 0.511719)" fill="none" fill-opacity="0.01" style="mix-blend-mode:multiply"/>
<path fill="#8a3ffc" d="M2.62 11.7667L3.335 11.0567C2.55211 10.3538 1.93699 9.48406 1.535 8.51172C2.55 5.97672 5.35 4.01172 8 4.01172C8.68195 4.02072 9.35772 4.14236 10 4.37172L10.775 3.59172C9.89633 3.22038 8.95385 3.02339 8 3.01172C6.37026 3.07301 4.79419 3.6105 3.4666 4.55776C2.13901 5.50503 1.11808 6.82054 0.530001 8.34172C0.490285 8.45157 0.490285 8.57187 0.530001 8.68172C0.974124 9.86023 1.69021 10.9172 2.62 11.7667Z"/>
<path fill="#8a3ffc" d="M6 8.37672C6.03477 7.89758 6.24085 7.44696 6.58054 7.10726C6.92024 6.76756 7.37086 6.56149 7.85 6.52672L8.755 5.61672C8.24788 5.48319 7.71462 5.48493 7.20838 5.62175C6.70214 5.75857 6.24061 6.02571 5.8698 6.39652C5.49899 6.76733 5.23186 7.22886 5.09503 7.7351C4.95821 8.24134 4.95647 8.7746 5.09 9.28172L6 8.37672Z"/>
<path fill="#8a3ffc" d="M15.47 8.34172C14.8967 6.84832 13.899 5.55523 12.6 4.62172L15 2.21672L14.295 1.51172L1 14.8067L1.705 15.5117L4.255 12.9617C5.39194 13.6287 6.68202 13.9904 8 14.0117C9.62974 13.9504 11.2058 13.4129 12.5334 12.4657C13.861 11.5184 14.8819 10.2029 15.47 8.68172C15.5097 8.57187 15.5097 8.45157 15.47 8.34172ZM10 8.51172C9.9979 8.86177 9.90395 9.20514 9.72755 9.5075C9.55116 9.80987 9.29849 10.0606 8.99481 10.2347C8.69112 10.4089 8.34705 10.5002 7.997 10.4997C7.64694 10.4992 7.30316 10.4068 7 10.2317L9.72 7.51172C9.89975 7.81458 9.99634 8.15955 10 8.51172ZM8 13.0117C6.95103 12.9934 5.92195 12.7224 5 12.2217L6.27 10.9517C6.84767 11.3525 7.54777 11.5377 8.24807 11.475C8.94836 11.4122 9.60437 11.1054 10.1015 10.6083C10.5987 10.1111 10.9055 9.45508 10.9682 8.75478C11.031 8.05449 10.8458 7.35439 10.445 6.77672L11.88 5.34172C13.0273 6.12921 13.9245 7.22943 14.465 8.51172C13.45 11.0467 10.65 13.0117 8 13.0117Z"/>
</svg>
